<svg width="35" height="27" viewBox="0 0 35 27" fill="none" xmlns="http://www.w3.org/2000/svg">
<path d="M0.5 2.875C0.5 1.70139 1.45139 0.75 2.625 0.75H32.375C33.5486 0.75 34.5 1.70139 34.5 2.875C34.5 4.0486 33.5486 5 32.375 5H2.625C1.45139 5 0.5 4.0486 0.5 2.875Z" fill="white"/>
<path d="M0.5 13.5C0.5 12.3264 1.45139 11.375 2.625 11.375H32.375C33.5486 11.375 34.5 12.3264 34.5 13.5C34.5 14.6736 33.5486 15.625 32.375 15.625H2.625C1.45139 15.625 0.5 14.6736 0.5 13.5Z" fill="white"/>
<path d="M2.625 22C1.45139 22 0.5 22.9514 0.5 24.125C0.5 25.2986 1.45139 26.25 2.625 26.25H32.375C33.5486 26.25 34.5 25.2986 34.5 24.125C34.5 22.9514 33.5486 22 32.375 22H2.625Z" fill="white"/>
</svg>
