<svg width="46" height="46" viewBox="0 0 46 46" fill="none" xmlns="http://www.w3.org/2000/svg">
<g clip-path="url(#clip0)">
<path d="M0 5.87234C0 2.62914 2.62914 0 5.87234 0H40.1277C43.3709 0 46 2.62914 46 5.87234V40.1277C46 43.3709 43.3709 46 40.1277 46H5.87234C2.62914 46 0 43.3709 0 40.1277V5.87234Z" fill="white"/>
<path d="M35.5753 13.3514H39.1489V7.12675C38.5324 7.04193 36.412 6.85107 33.9426 6.85107C28.79 6.85107 25.2604 10.0923 25.2604 16.0494V21.5319H19.5745V28.4906H25.2604V46H32.2316V28.4923H37.6875L38.5536 21.5336H32.2299V16.7394C32.2316 14.7282 32.7731 13.3514 35.5753 13.3514Z" fill="black"/>
</g>
<defs>
<clipPath id="clip0">
<rect width="46" height="46" fill="white"/>
</clipPath>
</defs>
</svg>
