<svg width="46" height="46" viewBox="0 0 46 46" fill="none" xmlns="http://www.w3.org/2000/svg">
<path d="M0 5.87234C0 2.62914 2.62914 0 5.87234 0H40.1277C43.3709 0 46 2.62914 46 5.87234V40.1277C46 43.3709 43.3709 46 40.1277 46H5.87234C2.62914 46 0 43.3709 0 40.1277V5.87234Z" fill="white"/>
<path d="M23 13.7021C17.8618 13.7021 13.7021 17.8664 13.7021 23C13.7021 28.1382 17.8664 32.2979 23 32.2979C28.1381 32.2979 32.2979 28.1336 32.2979 23C32.2979 17.8619 28.1336 13.7021 23 13.7021ZM23 29.035C19.6647 29.035 16.965 26.3338 16.965 23C16.965 19.6662 19.6662 16.965 23 16.965C26.3338 16.965 29.035 19.6662 29.035 23C29.0365 26.3338 26.3353 29.035 23 29.035Z" fill="black"/>
<path d="M30.0626 5.98016C26.9112 5.83315 19.1052 5.84028 15.9509 5.98016C13.179 6.11004 10.7341 6.77943 8.76296 8.75051C5.46874 12.0447 5.8898 16.4835 5.8898 22.9933C5.8898 29.6559 5.5187 33.992 8.76296 37.2362C12.07 40.5417 16.5732 40.1093 23.006 40.1093C29.6059 40.1093 31.8839 40.1136 34.2175 39.2101C37.3904 37.9783 39.7854 35.1423 40.0195 30.0484C40.168 26.8955 40.1594 19.0912 40.0195 15.9369C39.7369 9.92373 36.5098 6.27703 30.0626 5.98016ZM35.0511 35.0567C32.8916 37.2162 29.8956 37.0235 22.9647 37.0235C15.8281 37.0235 12.9664 37.1291 10.8782 35.0353C8.47322 32.6417 8.90855 28.7981 8.90855 22.9705C8.90855 15.0848 8.09927 9.40563 16.0137 9.00028C17.8321 8.93605 18.3673 8.91464 22.9447 8.91464L23.0089 8.95746C30.615 8.95746 36.5826 8.16104 36.9408 16.0739C37.0222 17.8794 37.0407 18.4218 37.0407 22.9919C37.0393 30.0455 37.1735 32.9243 35.0511 35.0567Z" fill="black"/>
<path d="M32.2979 15.6595C33.3789 15.6595 34.2553 14.7831 34.2553 13.7021C34.2553 12.621 33.3789 11.7446 32.2979 11.7446C31.2168 11.7446 30.3404 12.621 30.3404 13.7021C30.3404 14.7831 31.2168 15.6595 32.2979 15.6595Z" fill="black"/>
</svg>
