<svg width="46" height="46" viewBox="0 0 46 46" fill="none" xmlns="http://www.w3.org/2000/svg">
<path d="M0 5.87234C0 2.62914 2.62914 0 5.87234 0H40.1277C43.3709 0 46 2.62914 46 5.87234V40.1277C46 43.3709 43.3709 46 40.1277 46H5.87234C2.62914 46 0 43.3709 0 40.1277V5.87234Z" fill="white"/>
<path d="M34.9437 25.0706C34.3582 24.317 34.5257 23.9817 34.9437 23.3081C34.9513 23.3004 39.7843 16.4933 40.2823 14.1847L40.2853 14.1832C40.5327 13.3419 40.2853 12.7236 39.0887 12.7236H35.1293C34.1213 12.7236 33.6566 13.2542 33.4076 13.8479C33.4076 13.8479 31.3917 18.7664 28.5399 21.9547C27.6194 22.8759 27.1939 23.1712 26.6914 23.1712C26.444 23.1712 26.0592 22.8759 26.0592 22.0346V14.1832C26.0592 13.1743 25.777 12.7236 24.9426 12.7236H18.7168C18.0846 12.7236 17.7089 13.1943 17.7089 13.6326C17.7089 14.5892 19.1348 14.8092 19.2827 17.5006V23.3404C19.2827 24.62 19.0548 24.8553 18.5493 24.8553C17.2034 24.8553 13.9366 19.9168 12.0006 14.2647C11.6098 13.1681 11.2281 12.7252 10.2125 12.7252H6.25164C5.12146 12.7252 4.89362 13.2558 4.89362 13.8494C4.89362 14.8984 6.23957 20.1137 11.1526 27.0039C14.427 31.7071 19.0382 34.2555 23.233 34.2555C25.7544 34.2555 26.0622 33.6896 26.0622 32.716C26.0622 28.222 25.8344 27.7975 27.0973 27.7975C27.6828 27.7975 28.6908 28.0928 31.0447 30.3613C33.7351 33.0513 34.1772 34.2555 35.6831 34.2555H39.6425C40.7711 34.2555 41.343 33.6896 41.0141 32.573C40.2611 30.2245 35.1731 25.3936 34.9437 25.0706Z" fill="black"/>
</svg>
