<svg width="46" height="46" viewBox="0 0 46 46" fill="none" xmlns="http://www.w3.org/2000/svg">
<path d="M0 5.87234C0 2.62914 2.62914 0 5.87234 0H40.1277C43.3709 0 46 2.62914 46 5.87234V40.1277C46 43.3709 43.3709 46 40.1277 46H5.87234C2.62914 46 0 43.3709 0 40.1277V5.87234Z" fill="white"/>
<path d="M37.4989 15.8002L37.5368 16.0484C37.1702 14.7451 36.1804 13.7394 34.9225 13.3734L34.896 13.3671C32.5307 12.7237 23.0128 12.7237 23.0128 12.7237C23.0128 12.7237 13.5189 12.711 11.1296 13.3671C9.84776 13.7394 8.85665 14.7451 8.49636 16.0218L8.49004 16.0484C7.60639 20.6727 7.60007 26.2292 8.52923 31.1803L8.49004 30.9295C8.85665 32.2328 9.84649 33.2385 11.1043 33.6045L11.1309 33.6109C13.4936 34.2555 23.0141 34.2555 23.0141 34.2555C23.0141 34.2555 32.5067 34.2555 34.8973 33.6109C36.1804 33.2385 37.1715 32.2328 37.5318 30.9561L37.5381 30.9295C37.9401 28.7788 38.1702 26.3039 38.1702 23.7758C38.1702 23.6834 38.1702 23.5897 38.1689 23.4959C38.1702 23.4098 38.1702 23.3072 38.1702 23.2046C38.1702 20.6753 37.9401 18.2004 37.4989 15.8002ZM19.9763 28.1139V18.8767L27.8976 23.5023L19.9763 28.1139Z" fill="black"/>
</svg>
